# xmcd
#
# Track frame offsets:
#	150
#	26371
#	57171
#	88302
#	110060
#	129107
#	155712
#	175603
#
# Disc length: 2638 seconds
#
# Revision: 2
# Processed by: cddbd v1.4b41PL3 Copyright (c) Steve Scherf et al.
# Submitted via: EZCDDA 4.3.2
#
DISCID=600a4c08
DTITLE=John Mayall and New Bluesbreakers - The Blues Collection
DYEAR=1900
DGENRE=
TTITLE0=Ridin'on The I and N
TTITLE1=Help Me
TTITLE2=Racehorse Man
TTITLE3=All Your Love
TTITLE4=I Aint Got You
TTITLE5=Wild About You
TTITLE6=It Aint Right
TTITLE7=Room To move
EXTD=
EXTT0=
EXTT1=
EXTT2=
EXTT3=
EXTT4=
EXTT5=
EXTT6=
EXTT7=
PLAYORDER=
